<?xml version="1.0" encoding="utf-8"?>
<!-- Generator: Adobe Illustrator 24.3.0, SVG Export Plug-In . SVG Version: 6.00 Build 0)  -->
<svg version="1.1" id="Capa_1" xmlns="http://www.w3.org/2000/svg" xmlns:xlink="http://www.w3.org/1999/xlink" x="0px" y="0px"
	 viewBox="0 0 425.2 425.2" style="enable-background:new 0 0 425.2 425.2;" xml:space="preserve">
<style type="text/css">
	.st0{fill:#0A3871;}
</style>
<g>
	<path class="st0" d="M332.7,173.7c27.4,7.4,33,14.9,33.1,41.3c0,52.7,0.1,105.4,0.2,158.1c0,11.4,0.1,23.4-10,30.8
		c-6.1,4.4-14.4,8.1-21.8,8.1c-81.1,0.6-162.2,0.5-243.2,0.3c-18.6,0-31.1-12.1-31.2-30.7c-0.4-57.9-0.5-115.7-0.2-173.6
		c0.1-21.2,13.2-32.9,35.5-33c57.9-0.2,115.8-0.2,173.7-0.3c3.8,0,7.7,0,12.8,0c-0.1-32.8,6.6-66.4-21.8-92
		c-19.2-17.2-41.3-23.1-66.1-14.9c-26.5,8.7-42,27.9-46.7,55c-4,23.2,1.2,23-27.1,23c-25.1,0-27.6,2.2-24.9-27.6
		c4.5-50.7,49.3-96.1,100.3-104c72.6-11.2,135,47.6,137.4,114C333.1,143.3,332.7,158.4,332.7,173.7z M198.7,328.5L198.7,328.5
		c0,5.5-0.1,10.9,0.1,16.4c0.3,10.1,6.1,16.6,14.6,16.7c9.1,0.1,15-6.3,15.2-17.1c0.2-10.6-0.5-21.2,0.3-31.8
		c0.3-4.3,2.4-9.3,5.3-12.5c12.2-13.3,12.8-32.3,0.7-44c-11.9-11.5-31-11.6-42.5-0.2c-12.4,12.3-11.9,30.2,0.6,43.7
		c2.9,3.2,4.7,8.1,5.5,12.5C199.4,317.5,198.7,323.1,198.7,328.5z"/>
</g>
</svg>
